<svg width="150" height="151" viewBox="0 0 150 151" fill="none" xmlns="http://www.w3.org/2000/svg">
<rect x="3.5" y="146.504" width="143" height="143" rx="71.5" transform="rotate(-90 3.5 146.504)" stroke="url(#paint0_linear_25_313)" stroke-width="7"/>
<rect x="9.375" y="140.629" width="131.25" height="131.25" rx="65.625" transform="rotate(-90 9.375 140.629)" fill="url(#paint1_linear_25_313)"/>
<path d="M87.5 83.3704C90.0938 84.4724 91.6667 85.9183 91.6667 87.5037C91.6667 90.9558 84.2042 93.7537 75 93.7537C65.7958 93.7537 58.3333 90.9558 58.3333 87.5037C58.3333 85.9204 59.9063 84.4704 62.5 83.3704" stroke="white" stroke-width="4" stroke-linecap="round" stroke-linejoin="round"/>
<path d="M85.4167 67.5953C85.4167 74.0391 75 85.4203 75 85.4203C75 85.4203 64.5833 74.0391 64.5833 67.5953C64.5833 61.1537 69.2479 56.2537 75 56.2537C80.7521 56.2537 85.4167 61.1537 85.4167 67.5953V67.5953Z" stroke="white" stroke-width="4" stroke-linecap="round" stroke-linejoin="round"/>
<path d="M75 68.7536C76.1506 68.7536 77.0834 67.8208 77.0834 66.6702C77.0834 65.5197 76.1506 64.5869 75 64.5869C73.8494 64.5869 72.9167 65.5197 72.9167 66.6702C72.9167 67.8208 73.8494 68.7536 75 68.7536Z" stroke="white" stroke-width="4" stroke-linecap="round" stroke-linejoin="round"/>
<defs>
<linearGradient id="paint0_linear_25_313" x1="75" y1="150.004" x2="75" y2="300.004" gradientUnits="userSpaceOnUse">
<stop stop-color="#F61B10"/>
<stop offset="1" stop-color="#EF0963"/>
</linearGradient>
<linearGradient id="paint1_linear_25_313" x1="75" y1="140.629" x2="75" y2="271.879" gradientUnits="userSpaceOnUse">
<stop stop-color="#F61B10"/>
<stop offset="1" stop-color="#EF0963"/>
</linearGradient>
</defs>
</svg>
