<svg width="52" height="50" viewBox="0 0 52 50" fill="none" xmlns="http://www.w3.org/2000/svg">
<rect width="52" height="50" rx="11" fill="black"/>
<path d="M9.77394 23.656C10.0299 23.1547 10.3926 22.7653 10.8619 22.488C11.3419 22.2107 11.9233 22.072 12.6059 22.072V23.576H12.2219C10.5899 23.576 9.77394 24.4613 9.77394 26.232V31H8.31794V22.232H9.77394V23.656ZM13.7427 26.584C13.7427 25.688 13.924 24.904 14.2867 24.232C14.6494 23.5493 15.1454 23.0213 15.7747 22.648C16.4147 22.2747 17.124 22.088 17.9027 22.088C18.6707 22.088 19.3374 22.2533 19.9027 22.584C20.468 22.9147 20.8894 23.3307 21.1667 23.832V22.232H22.6387V31H21.1667V29.368C20.8787 29.88 20.4467 30.3067 19.8707 30.648C19.3054 30.9787 18.644 31.144 17.8867 31.144C17.108 31.144 16.404 30.952 15.7747 30.568C15.1454 30.184 14.6494 29.6453 14.2867 28.952C13.924 28.2587 13.7427 27.4693 13.7427 26.584ZM21.1667 26.6C21.1667 25.9387 21.0334 25.3627 20.7667 24.872C20.5 24.3813 20.1374 24.008 19.6787 23.752C19.2307 23.4853 18.7347 23.352 18.1907 23.352C17.6467 23.352 17.1507 23.48 16.7027 23.736C16.2547 23.992 15.8974 24.3653 15.6307 24.856C15.364 25.3467 15.2307 25.9227 15.2307 26.584C15.2307 27.256 15.364 27.8427 15.6307 28.344C15.8974 28.8347 16.2547 29.2133 16.7027 29.48C17.1507 29.736 17.6467 29.864 18.1907 29.864C18.7347 29.864 19.2307 29.736 19.6787 29.48C20.1374 29.2133 20.5 28.8347 20.7667 28.344C21.0334 27.8427 21.1667 27.2613 21.1667 26.6ZM29.3712 22.072C30.4379 22.072 31.3019 22.3973 31.9632 23.048C32.6245 23.688 32.9552 24.616 32.9552 25.832V31H31.5152V26.04C31.5152 25.1653 31.2965 24.4987 30.8592 24.04C30.4219 23.5707 29.8245 23.336 29.0672 23.336C28.2992 23.336 27.6859 23.576 27.2272 24.056C26.7792 24.536 26.5552 25.2347 26.5552 26.152V31H25.0992V22.232H26.5552V23.48C26.8432 23.032 27.2325 22.6853 27.7232 22.44C28.2245 22.1947 28.7739 22.072 29.3712 22.072ZM34.7896 26.584C34.7896 25.688 34.9709 24.904 35.3336 24.232C35.6962 23.5493 36.1922 23.0213 36.8216 22.648C37.4616 22.2747 38.1709 22.088 38.9496 22.088C39.7176 22.088 40.3842 22.2533 40.9496 22.584C41.5149 22.9147 41.9362 23.3307 42.2136 23.832V22.232H43.6856V31H42.2136V29.368C41.9256 29.88 41.4936 30.3067 40.9176 30.648C40.3522 30.9787 39.6909 31.144 38.9336 31.144C38.1549 31.144 37.4509 30.952 36.8216 30.568C36.1922 30.184 35.6962 29.6453 35.3336 28.952C34.9709 28.2587 34.7896 27.4693 34.7896 26.584ZM42.2136 26.6C42.2136 25.9387 42.0802 25.3627 41.8136 24.872C41.5469 24.3813 41.1842 24.008 40.7256 23.752C40.2776 23.4853 39.7816 23.352 39.2376 23.352C38.6936 23.352 38.1976 23.48 37.7496 23.736C37.3016 23.992 36.9442 24.3653 36.6776 24.856C36.4109 25.3467 36.2776 25.9227 36.2776 26.584C36.2776 27.256 36.4109 27.8427 36.6776 28.344C36.9442 28.8347 37.3016 29.2133 37.7496 29.48C38.1976 29.736 38.6936 29.864 39.2376 29.864C39.7816 29.864 40.2776 29.736 40.7256 29.48C41.1842 29.2133 41.5469 28.8347 41.8136 28.344C42.0802 27.8427 42.2136 27.2613 42.2136 26.6Z" fill="white"/>
</svg>
